<svg width="49" height="50" viewBox="0 0 49 50" fill="none" xmlns="http://www.w3.org/2000/svg">
<path d="M32.0251 23.3645C35.67 23.3645 38.6451 23.7072 40.9504 24.3925C43.2869 25.0779 45.0938 26.3707 46.371 28.271C47.6795 30.1714 48.3337 32.8972 48.3337 36.4486C48.3337 40.2492 47.6483 43.1464 46.2776 45.1402C44.9068 47.1028 43.0688 48.4112 40.7635 49.0654C38.4582 49.6885 35.5454 50 32.0251 50H22.6792V23.3645H32.0251ZM38.2868 43.6449C38.6607 43.2711 38.9255 42.3053 39.0812 40.7477C39.237 39.1901 39.3149 37.757 39.3149 36.4486C39.3149 34.7975 39.1903 33.4891 38.9411 32.5234C38.723 31.5265 38.318 30.7321 37.7261 30.1402C36.7915 29.1122 35.1871 28.5981 32.913 28.5981C32.508 28.5981 31.9005 28.6293 31.0905 28.6916V44.2056C31.6201 44.2679 32.4457 44.2991 33.5672 44.2991C34.7198 44.2991 35.7323 44.2524 36.6046 44.1589C37.508 44.0343 38.0688 43.863 38.2868 43.6449Z" fill="#303030"/>
<path d="M0.0114746 23.3645H19.4042V28.972H8.42278V33.8318H17.6752V38.8785H8.42278V44.2991H19.3575V50H0.0114746V23.3645Z" fill="#303030"/>
<path d="M40.8486 26.6355H32.4373V5.84112H24.9138V0H48.372V5.84112H40.8486V26.6355Z" fill="#303030"/>
<path d="M24.8133 26.6355H15.6076L10.4207 16.6822C10.3272 16.5265 10.078 16.0903 9.673 15.3738C9.29916 14.6573 8.8786 13.972 8.4113 13.3178V26.6355H0V0H8.4113V12.1028C8.9409 11.5109 9.39262 10.8723 9.76646 10.1869C10.1714 9.47041 10.4051 9.04985 10.4674 8.92524L15.4675 0H24.3461L19.0189 8.92524C18.9254 9.04985 18.7229 9.37695 18.4114 9.90655C18.0999 10.4361 17.7572 10.9346 17.3834 11.4019C17.0407 11.838 16.6668 12.243 16.2619 12.6168C16.8226 13.1464 17.2743 13.676 17.617 14.2056C17.9908 14.7041 18.4114 15.3738 18.8787 16.215L24.8133 26.6355Z" fill="#303030"/>
</svg>
